<?xml version="1.0"?>
<svg xmlns="http://www.w3.org/2000/svg" xmlns:xlink="http://www.w3.org/1999/xlink" xmlns:svgjs="http://svgjs.com/svgjs" version="1.1" width="512" height="512" x="0" y="0" viewBox="0 0 60 56" style="enable-background:new 0 0 512 512" xml:space="preserve" class=""><g><g xmlns="http://www.w3.org/2000/svg" id="008---Boom-Box"><path id="Shape" d="m57 15h-5v-11c0-2.209139-1.790861-4-4-4h-36c-2.209139 0-4 1.790861-4 4v11h-5c-1.65685425 0-3 1.3431458-3 3v35c0 1.6568542 1.34314575 3 3 3h54c1.6568542 0 3-1.3431458 3-3v-35c0-1.6568542-1.3431458-3-3-3zm-12 11h-25v-3c0-.5522847-.4477153-1-1-1s-1 .4477153-1 1v3h-3v-4c0-.5522847.4477153-1 1-1h28c.5522847 0 1 .4477153 1 1zm-35-22c0-1.1045695.8954305-2 2-2h36c1.1045695 0 2 .8954305 2 2v11h-3v-9c0-.55228475-.4477153-1-1-1h-32c-.5522847 0-1 .44771525-1 1v9h-3zm21 11v-1c0-.5522847.4477153-1 1-1h1c.5522847 0 1 .4477153 1 1v1zm-5 0v-1c0-.5522847.4477153-1 1-1h1c.5522847 0 1 .4477153 1 1v1zm-5 0v-1c0-.5522847.4477153-1 1-1h1c.5522847 0 1 .4477153 1 1v1zm15-1c0-.5522847.4477153-1 1-1h1c.5522847 0 1 .4477153 1 1v1h-3zm2-3c-1.23 0-2-.09-3 .78-.8430982-.6757459-1.9345329-.959519-3-.78-.7400546.0044106-1.452363.2822109-2 .78-.547637-.4977891-1.2599454-.7755894-2-.78-1.23 0-2-.09-3 .78-.8430982-.6757459-1.9345329-.959519-3-.78-1.6568542 0-3 1.3431458-3 3v1h-4v-8h30v8h-4v-1c0-1.6568542-1.3431458-3-3-3zm-35 6h54c.5522847 0 1 .4477153 1 1v8h-11v-4c0-1.6568542-1.3431458-3-3-3h-28c-1.6568542 0-3 1.3431458-3 3v4h-11v-8c0-.5522847.44771525-1 1-1zm33 27c0 .5522847-.4477153 1-1 1h-10c-.5522847 0-1-.4477153-1-1v-4c0-.5522847.4477153-1 1-1h10c.5522847 0 1 .4477153 1 1zm0-6.82c-.74-.26-.24-.18-11-.18-.3411432.0027046-.679326.0635775-1 .18v-2.18c0-1.6568542 1.3431458-3 3-3h6c1.6568542 0 3 1.3431458 3 3zm-11 16.82c-.5522847 0-1-.4477153-1-1v-6.18c.74.26.24.18 11 .18.3411432-.0027046.679326-.0635775 1-.18v6.18c0 .5522847-.4477153 1-1 1zm32 0h-19.18c.26-.75.18.49.18-19 0-2.7614237-2.2385763-5-5-5h-6c-2.7614237 0-5 2.2385763-5 5 0 19.52-.08 18.25.18 19h-19.18c-.55228475 0-1-.4477153-1-1v-25h56v25c0 .5522847-.4477153 1-1 1z" fill="#dba80d" data-original="#000000" style="" class=""/><path id="Shape" d="m12 32c-4.97056275 0-9 4.0294373-9 9s4.02943725 9 9 9c4.9705627 0 9-4.0294373 9-9s-4.0294373-9-9-9zm0 16c-3.86599325 0-7-3.1340068-7-7s3.13400675-7 7-7c3.8659932 0 7 3.1340068 7 7s-3.1340068 7-7 7z" fill="#dba80d" data-original="#000000" style="" class=""/><path id="Shape" d="m12 37c-2.209139 0-4 1.790861-4 4s1.790861 4 4 4 4-1.790861 4-4-1.790861-4-4-4zm0 6c-1.1045695 0-2-.8954305-2-2s.8954305-2 2-2 2 .8954305 2 2-.8954305 2-2 2z" fill="#dba80d" data-original="#000000" style="" class=""/><path id="Shape" d="m48 32c-4.9705627 0-9 4.0294373-9 9s4.0294373 9 9 9 9-4.0294373 9-9-4.0294373-9-9-9zm0 16c-3.8659932 0-7-3.1340068-7-7s3.1340068-7 7-7 7 3.1340068 7 7-3.1340068 7-7 7z" fill="#dba80d" data-original="#000000" style="" class=""/><path id="Shape" d="m48 37c-2.209139 0-4 1.790861-4 4s1.790861 4 4 4 4-1.790861 4-4-1.790861-4-4-4zm0 6c-1.1045695 0-2-.8954305-2-2s.8954305-2 2-2 2 .8954305 2 2-.8954305 2-2 2z" fill="#dba80d" data-original="#000000" style="" class=""/><circle id="Oval" cx="27" cy="42" r="1" fill="#dba80d" data-original="#000000" style="" class=""/><circle id="Oval" cx="33" cy="42" r="1" fill="#dba80d" data-original="#000000" style="" class=""/><path id="Shape" d="m27 48c-.5522847 0-1 .4477153-1 1v1c0 .5522847.4477153 1 1 1s1-.4477153 1-1v-1c0-.5522847-.4477153-1-1-1z" fill="#dba80d" data-original="#000000" style="" class=""/><path id="Shape" d="m30 48c-.5522847 0-1 .4477153-1 1v1c0 .5522847.4477153 1 1 1s1-.4477153 1-1v-1c0-.5522847-.4477153-1-1-1z" fill="#dba80d" data-original="#000000" style="" class=""/><path id="Shape" d="m33 48c-.5522847 0-1 .4477153-1 1v1c0 .5522847.4477153 1 1 1s1-.4477153 1-1v-1c0-.5522847-.4477153-1-1-1z" fill="#dba80d" data-original="#000000" style="" class=""/><path id="Shape" d="m7.5 25c1.93299662 0 3.5-1.5670034 3.5-3.5s-1.56700338-3.5-3.5-3.5-3.5 1.5670034-3.5 3.5c0 .9282577.36874894 1.8184964 1.02512627 2.4748737.65637732.6563774 1.54661602 1.0251263 2.47487373 1.0251263zm0-5c.82842712 0 1.5.6715729 1.5 1.5s-.67157288 1.5-1.5 1.5-1.5-.6715729-1.5-1.5.67157288-1.5 1.5-1.5z" fill="#dba80d" data-original="#000000" style="" class=""/><path id="Shape" d="m52.5 25c1.9329966 0 3.5-1.5670034 3.5-3.5s-1.5670034-3.5-3.5-3.5-3.5 1.5670034-3.5 3.5c0 .9282577.3687489 1.8184964 1.0251263 2.4748737.6563773.6563774 1.546616 1.0251263 2.4748737 1.0251263zm0-5c.8284271 0 1.5.6715729 1.5 1.5s-.6715729 1.5-1.5 1.5-1.5-.6715729-1.5-1.5.6715729-1.5 1.5-1.5z" fill="#dba80d" data-original="#000000" style="" class=""/></g></g></svg>
